<?xml version="1.0" encoding="UTF-8"?>
<svg version="1.1" xmlns="http://www.w3.org/2000/svg" width="349" height="349">
<path d="M0 0 C0 0.66 0 1.32 0 2 C0.58394531 2.268125 1.16789063 2.53625 1.76953125 2.8125 C11.65310503 8.07450776 20.02020785 18.740967 26 28 C26 28.66 26 29.32 26 30 C26.66 30 27.32 30 28 30 C36.98143097 48.11260139 43.18771448 63.70663167 43.18530273 84.22338867 C43.18748362 86.29692294 43.20566823 88.36991923 43.22460938 90.44335938 C43.25722487 97.85435643 42.93288161 104.82242363 41 112 C40.71201538 113.08583374 40.71201538 113.08583374 40.41821289 114.19360352 C36.23474 129.00246088 29.69111088 142.17629271 19.71875 153.94921875 C18.23078592 155.72463044 16.93731191 157.49177009 15.6875 159.4375 C14.25648273 161.61052623 13.00807073 163.35703304 11 165 C10.34 165 9.68 165 9 165 C9 165.66 9 166.32 9 167 C4.52941176 171 4.52941176 171 2 171 C2 171.66 2 172.32 2 173 C-0.475 173.99 -0.475 173.99 -3 175 C-3 175.66 -3 176.32 -3 177 C-4.81262114 178.27830301 -6.69408123 179.45921164 -8.59765625 180.59765625 C-9.17813217 180.94755112 -9.75860809 181.29744598 -10.35667419 181.65794373 C-12.25456058 182.7997124 -14.15842857 183.93108146 -16.0625 185.0625 C-17.37279811 185.84828793 -18.68269364 186.63474754 -19.9921875 187.421875 C-23.65683489 189.62238191 -27.32806601 191.8116757 -31 194 C-32.40538846 194.84171279 -33.81044963 195.68397295 -35.21484375 196.52734375 C-37.43883354 197.86279541 -39.66413402 199.19606631 -41.890625 200.52734375 C-45.89987093 202.93268314 -49.8920777 205.36585404 -53.88554382 207.79727173 C-65.45229767 214.83911075 -77.03950539 221.84318266 -88.6875 228.75 C-89.79061523 229.40492432 -90.89373047 230.05984863 -92.03027344 230.73461914 C-97.97099971 234.24916745 -103.9420329 237.69127723 -110 241 C-110.37198629 233.43627874 -109.39576437 226.44732859 -107.97924805 219.04174805 C-106.58114484 211.20409346 -107.21714416 204.47892508 -110 197 C-110.34976758 195.67088318 -110.69096017 194.33917261 -111 193 C-111.66 193 -112.32 193 -113 193 C-113.680625 192.13375 -114.36125 191.2675 -115.0625 190.375 C-117.18415538 187.71362527 -119.31161097 186.00144414 -122.1875 184.1875 C-127.67151677 180.70849103 -132.28901708 176.44743143 -137 172 C-137.82757813 171.23429687 -137.82757813 171.23429687 -138.671875 170.453125 C-141.061003 168.17642655 -142.7497476 166.06880134 -144 163 C-144.66 163 -145.32 163 -146 163 C-147.2890625 161.5390625 -147.2890625 161.5390625 -148.625 159.625 C-149.07101563 158.99851563 -149.51703125 158.37203125 -149.9765625 157.7265625 C-151 156 -151 156 -151 154 C-151.66 154 -152.32 154 -153 154 C-163.13835369 141.5025834 -169.69760319 124.34762561 -174 109 C-174.24492187 108.14277344 -174.48984375 107.28554687 -174.7421875 106.40234375 C-180.55955087 81.26017741 -173.2955319 54.5066784 -160 33 C-141.57917811 5.99406112 -115.68681674 -14.28912449 -83.17114258 -20.54418945 C-52.49692627 -24.95320954 -25.40472719 -16.93648479 0 0 Z M-90 -5 C-91.134375 -4.67128906 -92.26875 -4.34257812 -93.4375 -4.00390625 C-105.68759908 -0.05270242 -117.13231757 6.74336776 -127 15 C-127 15.66 -127 16.32 -127 17 C-127.556875 17.226875 -128.11375 17.45375 -128.6875 17.6875 C-131.66159588 19.37550036 -133.72008865 21.46676517 -136 24 C-136 24.66 -136 25.32 -136 26 C-137.485 26.495 -137.485 26.495 -139 27 C-142.31411914 30.45076717 -142.31411914 30.45076717 -143 35 C-144.485 35.495 -144.485 35.495 -146 36 C-147.78019324 38.50172631 -147.78019324 38.50172631 -149.4375 41.5625 C-150.04851562 42.64917969 -150.65953125 43.73585937 -151.2890625 44.85546875 C-154.33023558 50.44483937 -157.19589688 55.86604938 -159 62 C-159.24242432 62.73436279 -159.48484863 63.46872559 -159.73461914 64.2253418 C-162.09498851 71.88808408 -162.45257969 79.01791156 -162.375 87 C-162.38660156 88.19367188 -162.39820313 89.38734375 -162.41015625 90.6171875 C-162.38521875 98.21481329 -161.44502151 104.80901709 -159 112 C-158.77570313 112.67111816 -158.55140625 113.34223633 -158.3203125 114.03369141 C-150.00952027 137.62500844 -133.78537537 161.6093185 -112.375 175 C-103.46440217 180.709091 -97.3419437 189.06734315 -94.8125 199.3125 C-93.78827731 204.49706087 -93.39198876 209.73663434 -93 215 C-83.79876339 209.7989246 -74.70561845 204.45213942 -65.6875 198.9375 C-63.24288186 197.44677573 -60.79730232 195.95763313 -58.3515625 194.46875 C-57.73948441 194.0959642 -57.12740631 193.72317841 -56.4967804 193.33909607 C-50.20307135 189.50893155 -43.88419306 185.7212941 -37.5625 181.9375 C-25.22061411 174.56792632 -25.22061411 174.56792632 -13 167 C-11.90042969 166.31292969 -10.80085937 165.62585938 -9.66796875 164.91796875 C-8.34732422 163.96857422 -8.34732422 163.96857422 -7 163 C-7 162.34 -7 161.68 -7 161 C-6.43667969 160.76023438 -5.87335938 160.52046875 -5.29296875 160.2734375 C7.34154024 153.25665738 16.29198061 137.76399672 22 125 C22.67869141 123.53240234 22.67869141 123.53240234 23.37109375 122.03515625 C28.48521383 110.48665363 30.55171342 99.22382807 30.4375 86.625 C30.42992676 85.44397705 30.42235352 84.2629541 30.41455078 83.04614258 C30.24588177 74.09498912 29.23716761 66.40861803 26 58 C25.55269531 56.80503906 25.10539063 55.61007813 24.64453125 54.37890625 C20.24725787 43.42698408 14.11442794 32.67109055 6 24 C5.34 24 4.68 24 4 24 C3.77957031 23.43796875 3.55914062 22.8759375 3.33203125 22.296875 C-4.8511019 8.18636975 -26.88993942 -1.25555878 -41.8125 -5.25 C-57.61860965 -9.31395232 -74.27471063 -9.66844528 -90 -5 Z " fill="currentColor" transform="translate(238,35)"/>
<path d="M0 0 C1.18319824 0.00902344 2.36639648 0.01804688 3.58544922 0.02734375 C20.5198591 0.36226409 39.06954772 5.96598534 52.4296875 16.9296875 C53.625 18.4375 53.625 18.4375 54.3125 22.125 C53.625 25.4375 53.625 25.4375 52.5625 27.375 C49.61331309 28.99229605 46.91632441 28.62380138 43.625 28.4375 C43.625 27.7775 43.625 27.1175 43.625 26.4375 C42.91214844 26.16679688 42.19929688 25.89609375 41.46484375 25.6171875 C38.59340555 24.42437548 35.92779534 23.02956519 33.1875 21.5625 C16.20010499 13.09983915 -3.12348602 10.82678349 -21.375 16.4375 C-29.52513067 19.26996135 -37.39316576 22.70422082 -43.9921875 28.37109375 C-45.375 29.4375 -45.375 29.4375 -47.375 29.4375 C-47.375 30.0975 -47.375 30.7575 -47.375 31.4375 C-53.81402439 37.4375 -53.81402439 37.4375 -57.375 37.4375 C-60.80286992 36.08229561 -62.0622867 35.1098336 -63.625 31.75 C-63.24315956 26.69061416 -60.11408156 23.70401471 -56.375 20.4375 C-55.715 20.4375 -55.055 20.4375 -54.375 20.4375 C-54.375 19.7775 -54.375 19.1175 -54.375 18.4375 C-52.36368548 16.9091455 -50.3784419 15.53639831 -48.25 14.1875 C-47.30362671 13.58687744 -47.30362671 13.58687744 -46.33813477 12.97412109 C-31.90679471 4.05058427 -17.0010151 -0.15653359 0 0 Z " fill="currentColor" transform="translate(170.375,35.5625)"/>
<path d="M0 0 C1.17870667 -0.00788544 1.17870667 -0.00788544 2.38122559 -0.01593018 C4.97497515 -0.02911897 7.56810959 -0.02039711 10.16186523 -0.01025391 C11.96500262 -0.01227476 13.76813921 -0.0151863 15.5712738 -0.01895142 C19.3482136 -0.02337307 23.12494043 -0.01694807 26.90185547 -0.00292969 C31.7465917 0.01417441 36.59082981 0.00431234 41.43554783 -0.01364708 C45.15784979 -0.02447875 48.8800333 -0.02104164 52.60233879 -0.0132637 C54.3889465 -0.01126062 56.17556491 -0.01372475 57.96216011 -0.02070236 C60.45683488 -0.02830813 62.95069828 -0.01672603 65.4453125 0 C66.18565231 -0.00607269 66.92599213 -0.01214539 67.68876648 -0.0184021 C72.67816673 0.0436781 72.67816673 0.0436781 75.09922791 1.78207397 C77.21706129 4.99485637 77.38934448 8.61990547 77.15795898 12.38818359 C75.09456685 15.92542725 74.04537333 17.09237881 70.15795898 18.38818359 C67.73604153 18.49406756 65.34246817 18.5454035 62.92016602 18.54931641 C61.81964905 18.55676376 61.81964905 18.55676376 60.69689941 18.56436157 C58.26984723 18.57896615 55.84286039 18.58578213 53.41577148 18.59130859 C51.72809853 18.5970612 50.0404256 18.60281892 48.35275269 18.60858154 C44.81369726 18.6190865 41.27466452 18.62493255 37.7355957 18.62841797 C33.20382826 18.63390339 28.67236118 18.65793443 24.14068794 18.68638992 C20.65423713 18.70502555 17.16785856 18.71022238 13.68136215 18.71175385 C12.01082593 18.71477853 10.34029092 18.72280088 8.66980362 18.73593903 C6.33115102 18.7530201 3.99323092 18.75111462 1.65454102 18.74462891 C0.62259109 18.75845108 0.62259109 18.75845108 -0.4302063 18.77255249 C-4.738244 18.73518237 -7.42270997 18.02859255 -10.84204102 15.38818359 C-12.99955636 12.15191058 -13.09567622 11.55239522 -12.71704102 7.88818359 C-12.65258789 7.11474609 -12.58813477 6.34130859 -12.52172852 5.54443359 C-10.66738083 -0.33832458 -5.28217222 -0.0434462 0 0 Z " fill="currentColor" transform="translate(139.842041015625,286.61181640625)"/>
<path d="M0 0 C16.14281135 3.69580379 32.33591225 12.89613088 41.7421875 26.94921875 C42.15726563 27.62597656 42.57234375 28.30273438 43 29 C43.49757812 29.74894531 43.99515625 30.49789062 44.5078125 31.26953125 C51.64798139 42.94855122 56.22822834 59.29639568 54 73 C51.73553473 77.71218206 51.73553473 77.71218206 48.125 79.125 C45 79 45 79 42.125 77.25 C39.02816601 72.51366566 39.75423615 68.50362075 40 63 C39.87978122 52.0944395 36.2180198 41.81817442 29.13671875 33.48828125 C28 32 28 32 28 30 C27.34 30 26.68 30 26 30 C24.375 28.625 24.375 28.625 23 27 C23 26.34 23 25.68 23 25 C21.88431641 24.59394531 21.88431641 24.59394531 20.74609375 24.1796875 C18.14082211 23.06049542 16.30100204 21.83601344 14.0625 20.125 C6.8624096 15.19672443 -1.71095931 13.56974786 -10.1875 12.0625 C-14 11 -14 11 -16.1875 8.6875 C-17 6 -17 6 -16.375 3.3125 C-12.6007065 -3.03517543 -6.28634812 -0.99334451 0 0 Z " fill="currentColor" transform="translate(184,55)"/>
<path d="M0 0 C1.9375 1.5 1.9375 1.5 3 4 C2.83279323 9.09980647 1.8069498 12.46368919 -0.25585938 17.1418457 C-6.63958589 33.0823124 -4.95036622 51.53311003 1.25 67.1875 C3.58848617 72.4866384 6.50446162 77.35019005 9.64453125 82.2109375 C11.20095262 85.41348751 11.34288851 87.48166577 11 91 C9.875 92.875 9.875 92.875 8 94 C5.125 94.5 5.125 94.5 2 94 C-9.4771693 85.67905225 -14.47816052 66.23297395 -17 53 C-17.4363166 48.59443747 -17.5238788 44.23771979 -17.5 39.8125 C-17.49718018 38.63792236 -17.49436035 37.46334473 -17.49145508 36.25317383 C-17.26414001 23.93844366 -14.90470351 11.43529073 -7.6875 1.125 C-5.03560724 -0.6429285 -3.09361516 -0.45115221 0 0 Z " fill="currentColor" transform="translate(102,81)"/>
<path d="M0 0 C3.375 1 3.375 1 4.8125 2.625 C7.11908164 12.36390027 3.96527016 23.56401585 1.375 33 C0.715 33 0.055 33 -0.625 33 C-0.686875 33.78375 -0.74875 34.5675 -0.8125 35.375 C-2.75202335 44.02825804 -7.93841317 52.26776875 -13.625 59 C-14.285 59 -14.945 59 -15.625 59 C-15.88796875 59.58394531 -16.1509375 60.16789062 -16.421875 60.76953125 C-20.02573302 67.45070958 -26.53400058 71.86531588 -32.75 75.9375 C-33.62833496 76.52180786 -33.62833496 76.52180786 -34.52441406 77.11791992 C-38.18621546 79.43516973 -41.27076447 80.8208896 -45.625 81 C-48.5625 78.875 -48.5625 78.875 -50.625 76 C-50.8125 73.5 -50.8125 73.5 -49.625 71 C-46.6465402 68.09245591 -44.03920909 66.22303566 -40.375 64.25 C-25.66523309 56.1466107 -16.03163817 40.67750721 -10.8125 25.125 C-9.40543657 20.03922856 -8.91921774 14.78358176 -8.53393555 9.53173828 C-8.22393205 6.21555413 -7.78921909 4.22105075 -5.78515625 1.5234375 C-3.625 0 -3.625 0 0 0 Z " fill="currentColor" transform="translate(250.625,117)"/>
<path d="M0 0 C0.515625 0.2475 1.03125 0.495 1.5625 0.75 C3.26124712 6.29026044 2.55737669 12.09081771 2.375 17.8125 C2.35630859 19.00939453 2.33761719 20.20628906 2.31835938 21.43945312 C2.28162109 22.58478516 2.24488281 23.73011719 2.20703125 24.91015625 C2.17971924 25.95824463 2.15240723 27.00633301 2.12426758 28.08618164 C1.5625 30.75 1.5625 30.75 -0.12294006 32.39520264 C-2.97578594 34.06507863 -4.73845163 34.11283141 -8.03222656 34.09057617 C-9.15308655 34.09034958 -10.27394653 34.09012299 -11.42877197 34.08988953 C-12.63305847 34.07440567 -13.83734497 34.05892181 -15.078125 34.04296875 C-16.31544373 34.03872391 -17.55276245 34.03447906 -18.82757568 34.03010559 C-22.10912541 34.01616254 -25.39023056 33.98923086 -28.67163086 33.95599365 C-32.02323307 33.92524594 -35.37485439 33.91184603 -38.7265625 33.89648438 C-45.29704877 33.86339996 -51.86723802 33.81318845 -58.4375 33.75 C-58.4375 33.09 -58.4375 32.43 -58.4375 31.75 C-57.80585938 31.39921387 -57.17421875 31.04842773 -56.5234375 30.68701172 C-42.42098819 22.84582638 -28.4088393 14.87784003 -14.4921875 6.7109375 C-13.62118408 6.20175781 -12.75018066 5.69257813 -11.8527832 5.16796875 C-10.32806141 4.27283237 -8.8077142 3.37016335 -7.29370117 2.45703125 C-2.70033774 -0.27695772 -2.70033774 -0.27695772 0 0 Z " fill="currentColor" transform="translate(214.4375,245.25)"/>
<path d="M0 0 C1 1 1 1 1.09765625 2.84765625 C1.06510417 4.8984375 1.03255208 6.94921875 1 9 C-0.11117187 9.54527344 -1.22234375 10.09054688 -2.3671875 10.65234375 C-19.42879159 19.22152097 -30.74416529 29.16210523 -36.875 47.63671875 C-37.34573754 49.15926047 -37.79902909 50.68742262 -38.2265625 52.22265625 C-39 54 -39 54 -42 56 C-45.62976786 55.92437984 -47.36795962 55.61228912 -50 53.0625 C-51.93304835 47.14253944 -49.7827901 41.25514586 -47.125 35.8125 C-46.42777808 34.53553678 -45.71983258 33.26435538 -45 32 C-44.401875 30.865625 -43.80375 29.73125 -43.1875 28.5625 C-39.2736072 21.8507854 -32.54007057 10.7257565 -24.79296875 8.3125 C-23.90544922 8.1578125 -23.90544922 8.1578125 -23 8 C-23 7.34 -23 6.68 -23 6 C-20.730384 4.85170023 -18.45939222 3.70628022 -16.1875 2.5625 C-15.54490234 2.23701172 -14.90230469 1.91152344 -14.24023438 1.57617188 C-8.48665978 -1.31552105 -6.10483635 -2.38884901 0 0 Z " fill="currentColor" transform="translate(155,59)"/>
<path d="M0 0 C1.02665268 -0.0038269 2.05330536 -0.00765381 3.11106873 -0.01159668 C5.27709944 -0.01431388 7.44316307 -0.00696621 9.60913086 0.00976562 C12.92571 0.03119905 16.24012824 0.00994526 19.55664062 -0.015625 C21.6627652 -0.01298212 23.76888843 -0.00785797 25.875 0 C26.86673721 -0.00809692 27.85847443 -0.01619385 28.88026428 -0.02453613 C35.73100344 0.06889304 35.73100344 0.06889304 38.99389648 2.42578125 C40.57095417 4.83679799 40.91033978 6.16628969 40.87109375 9.03125 C40.88140625 9.7840625 40.89171875 10.536875 40.90234375 11.3125 C40.11370185 14.60623971 39.15201948 15.53458238 36.37109375 17.53125 C32.79307289 18.14575829 29.24402474 18.09135139 25.62109375 18.0625 C24.04569824 18.06824036 24.04569824 18.06824036 22.43847656 18.07409668 C20.21939128 18.07681696 18.00027401 18.06944777 15.78125 18.05273438 C12.3833878 18.03132745 8.98764014 18.05253325 5.58984375 18.078125 C3.43358908 18.07548175 1.27733573 18.07035682 -0.87890625 18.0625 C-1.8956543 18.07059692 -2.91240234 18.07869385 -3.95996094 18.08703613 C-10.98552669 17.99357294 -10.98552669 17.99357294 -14.26538086 15.63671875 C-15.8186816 13.23821103 -16.19627721 11.8758904 -16.19140625 9.03125 C-16.21332031 8.2784375 -16.23523438 7.525625 -16.2578125 6.75 C-14.11445662 -0.81165304 -6.36625511 -0.05208286 0 0 Z " fill="currentColor" transform="translate(159.62890625,311.46875)"/>
<path d="M0 0 C2.83984375 0.51953125 2.83984375 0.51953125 5.27734375 2.14453125 C6.83984375 4.51953125 6.83984375 4.51953125 6.65234375 7.30078125 C5.75156283 10.8692595 4.40752867 13.31796895 2.40234375 16.39453125 C1.78488281 17.36132812 1.16742188 18.328125 0.53125 19.32421875 C-0.02691406 20.04867187 -0.58507812 20.773125 -1.16015625 21.51953125 C-1.82015625 21.51953125 -2.48015625 21.51953125 -3.16015625 21.51953125 C-3.40121094 22.09574219 -3.64226562 22.67195313 -3.890625 23.265625 C-5.40383682 25.95215799 -7.15201029 27.55780394 -9.47265625 29.58203125 C-10.23191406 30.25363281 -10.99117187 30.92523438 -11.7734375 31.6171875 C-14.94649569 34.14628626 -17.73985275 36.282814 -21.78515625 36.95703125 C-24.16015625 36.51953125 -24.16015625 36.51953125 -26.03515625 34.95703125 C-27.68081642 31.39143422 -27.22732584 29.2546248 -26.16015625 25.51953125 C-23.72265625 23.08203125 -23.72265625 23.08203125 -21.16015625 21.51953125 C-20.50015625 21.51953125 -19.84015625 21.51953125 -19.16015625 21.51953125 C-19.16015625 20.85953125 -19.16015625 20.19953125 -19.16015625 19.51953125 C-17.7117159 18.35109463 -16.26247745 17.18362914 -14.80859375 16.02197266 C-11.49728668 13.00393597 -9.29366834 9.0371048 -6.94921875 5.25195312 C-4.82858825 2.06087698 -3.87261114 0.63665919 0 0 Z " fill="currentColor" transform="translate(224.16015625,142.48046875)"/>
<path d="M0 0 C4.45171055 1.38156534 5.28135002 2.7193464 7.43359375 6.67578125 C7.82675781 7.48402344 8.21992188 8.29226562 8.625 9.125 C9.06972656 10.02605469 9.51445312 10.92710938 9.97265625 11.85546875 C13.82636467 20.00106236 18.58406079 30.12537634 15.625 39.1875 C13.625 41.125 13.625 41.125 10.125 41.625 C6.625 41.125 6.625 41.125 4.98046875 39.9453125 C3.1741158 37.51948981 2.93901962 35.47895115 2.4375 32.5 C1.05429296 25.76536902 -1.543839 20.09250514 -4.77026367 14.03857422 C-6.51368574 10.63381135 -7.38700093 8.64404027 -7.296875 4.74609375 C-5.87887828 0.71441662 -4.15131051 0.15375224 0 0 Z " fill="currentColor" transform="translate(238.375,72.875)"/>
<path d="M0 0 C3.4375 0.8125 3.4375 0.8125 5.4375 2.8125 C5.91665865 5.07097341 6.32127562 7.34548802 6.6875 9.625 C7.87470231 16.45554699 10.0482307 21.86972459 13.328125 28.0078125 C14.5872689 31.1911411 14.54309287 32.612392 13.4375 35.8125 C11.14456971 38.36020033 9.92956843 38.78109138 6.5 39 C0.92431468 36.83799957 -0.76847876 31.45935887 -3.25 26.3125 C-6.14139229 18.60212056 -7.70184756 11.08195811 -6.5625 2.8125 C-4.41574884 -0.27830438 -3.92984217 -0.2068338 0 0 Z " fill="currentColor" transform="translate(110.5625,120.1875)"/>
</svg>
